<!-- Replace with your own profile image URL -->
<svg xmlns="http://www.w3.org/2000/svg" style="display:none">
  <symbol id="icon-github" viewBox="0 0 24 24">
    <path d="M12 .5C5.73.5.5 5.74.5 12.02c0 5.1 3.29 9.43 7.86 10.96.58.11.79-.25.79-.56 0-.28-.01-1.02-.02-2-3.2.7-3.88-1.54-3.88-1.54-.53-1.34-1.3-1.7-1.3-1.7-1.06-.72.08-.71.08-.71 1.17.08 1.78 1.2 1.78 1.2 1.04 1.78 2.73 1.27 3.4.97.11-.75.41-1.27.74-1.56-2.55-.29-5.23-1.28-5.23-5.7 0-1.26.45-2.29 1.19-3.1-.12-.29-.52-1.46.11-3.05 0 0 .97-.31 3.18 1.18a11.1 11.1 0 0 1 2.9-.39c.98 0 1.97.13 2.9.39 2.2-1.49 3.17-1.18 3.17-1.18.63 1.59.23 2.76.11 3.05.74.81 1.19 1.84 1.19 3.1 0 4.43-2.69 5.41-5.25 5.7.42.36.79 1.09.79 2.2 0 1.59-.01 2.87-.01 3.26 0 .31.21.68.8.56C20.71 21.45 24 17.12 24 12.02 24 5.74 18.27.5 12 .5z"/>
  </symbol>
  <symbol id="icon-linkedin" viewBox="0 0 24 24">
    <path d="M19 0h-14c-2.76 0-5 2.24-5 5v14c0 2.76 2.24 5 5 5h14c2.76 0 5-2.24 5-5v-14c0-2.76-2.24-5-5-5zm-11 19h-3v-10h3v10zm-1.5-11.28c-.97 0-1.75-.79-1.75-1.75s.78-1.75 1.75-1.75 1.75.79 1.75 1.75-.78 1.75-1.75 1.75zm15.5 11.28h-3v-5.6c0-1.34-.03-3.07-1.87-3.07-1.87 0-2.16 1.46-2.16 2.97v5.7h-3v-10h2.89v1.36h.04c.4-.75 1.37-1.54 2.82-1.54 3.01 0 3.57 1.98 3.57 4.56v5.62z"/>
  </symbol>
  <symbol id="icon-instagram" viewBox="0 0 24 24">
    <path d="M12 2.2c3.2 0 3.584.012 4.85.07 1.17.056 1.97.24 2.43.41.59.22 1.01.48 1.45.92.44.44.7.86.92 1.45.17.46.354 1.26.41 2.43.058 1.266.07 1.65.07 4.85s-.012 3.584-.07 4.85c-.056 1.17-.24 1.97-.41 2.43-.22.59-.48 1.01-.92 1.45-.44.44-.86.7-1.45.92-.46.17-1.26.354-2.43.41-1.266.058-1.65.07-4.85.07s-3.584-.012-4.85-.07c-1.17-.056-1.97-.24-2.43-.41-.59-.22-1.01-.48-1.45-.92-.44-.44-.7-.86-.92-1.45-.17-.46-.354-1.26-.41-2.43C2.212 15.634 2.2 15.25 2.2 12s.012-3.584.07-4.85c.056-1.17.24-1.97.41-2.43.22-.59.48-1.01.92-1.45.44-.44.86-.7 1.45-.92.46-.17 1.26-.354 2.43-.41C8.416 2.212 8.8 2.2 12 2.2zm0-2.2C8.736 0 8.332.012 7.052.07c-1.28.058-2.15.25-2.91.53-.8.29-1.48.68-2.16 1.36-.68.68-1.07 1.36-1.36 2.16-.28.76-.472 1.63-.53 2.91C.012 8.332 0 8.736 0 12c0 3.264.012 3.668.07 4.948.058 1.28.25 2.15.53 2.91.29.8.68 1.48 1.36 2.16.68.68 1.36 1.07 2.16 1.36.76.28 1.63.472 2.91.53C8.332 23.988 8.736 24 12 24c3.264 0 3.668-.012 4.948-.07 1.28-.058 2.15-.25 2.91-.53.8-.29 1.48-.68 2.16-1.36.68-.68 1.07-1.36 1.36-2.16.28-.76.472-1.63.53-2.91.058-1.28.07-1.684.07-4.948 0-3.264-.012-3.668-.07-4.948-.058-1.28-.25-2.15-.53-2.91-.29-.8-.68-1.48-1.36-2.16-.68-.68-1.36-1.07-2.16-1.36-.76-.28-1.63-.472-2.91-.53C15.668.012 15.264 0 12 0zm0 5.838a6.162 6.162 0 1 0 0 12.324 6.162 6.162 0 0 0 0-12.324zm0 10.162a3.999 3.999 0 1 1 0-7.998 3.999 3.999 0 0 1 0 7.998zm7.844-10.406a1.44 1.44 0 1 1-2.88 0 1.44 1.44 0 0 1 2.88 0z"/>
  </symbol>
</svg>
